<svg width="126" height="48" viewBox="0 0 126 48" fill="none" xmlns="http://www.w3.org/2000/svg">
<path d="M7.63966 16.34C11.3498 16.34 12.5801 16.5671 13.8919 17.0175C15.9041 17.7438 17.7955 19.2366 17.7955 22.9448C17.7955 29.0025 13.1224 29.404 10.5756 29.404C8.3353 29.404 7.63966 29.2306 7.63966 27.5566V16.3391V16.34ZM0 2.01028C3.1582 2.19042 3.70628 2.72893 3.70628 6.07685V26.1548C3.70628 29.3647 3.23964 30.1389 0 30.2261V31.0818H12.8886C21.4635 31.0818 22.2348 24.8468 22.2348 23.1298C22.2348 18.3762 19.1466 16.2097 15.7852 15.3962V15.3042C17.5176 14.8041 20.924 13.8114 20.924 8.78949C20.924 1.77936 14.1669 1.15079 10.8084 1.15079H0V2.01124V2.01028ZM7.63966 4.17963C7.63966 3.4974 7.71727 2.86403 8.48765 2.86403C8.87955 2.86403 9.41806 2.81804 10.2287 2.81804C12.971 2.81804 16.9868 3.67849 16.9868 9.06449C16.9868 14.4505 12.3904 14.5348 11.3086 14.5348L7.64061 14.5789V4.17963H7.63966Z" fill="#59625D"/>
<path d="M25.7073 30.7895C27.2941 30.6976 27.7272 30.5251 27.7272 28.1871V21.244C27.7272 19.48 27.2385 19.4494 26.8303 19.4494C26.4739 19.4494 26.1423 19.5097 25.8117 19.5758V19.1226C27.1369 18.6129 28.4439 18.0437 29.7681 17.4745L29.8726 17.5656V28.1871C29.8726 30.16 30.001 30.6726 31.7602 30.7895V31.2389H25.7083V30.7895H25.7073ZM28.5685 10.8046C29.335 10.8046 29.8946 11.4916 29.8946 12.3281C29.8946 13.1646 29.335 13.8564 28.5685 13.8564C27.6448 13.8564 27.2941 12.8992 27.2941 12.3281C27.2941 11.757 27.6735 10.8046 28.5685 10.8046Z" fill="#59625D"/>
<path d="M39.0913 30.6976C36.0232 30.6976 35.4387 25.1966 35.4387 22.9793C35.4387 19.8719 36.8434 18.3149 38.4512 18.3149C40.7998 18.3149 42.1067 21.5746 42.1067 25.2857C42.1067 29.5621 40.3925 30.6985 39.0923 30.6985L39.0913 30.6976ZM38.6544 17.4745C35.2327 17.4745 33.1371 20.7343 33.1371 24.4147C33.1371 28.4573 35.4387 31.5398 38.731 31.5398C42.6136 31.5398 44.4035 27.3784 44.4035 24.4147C44.4035 20.076 41.9994 17.4745 38.6544 17.4745Z" fill="#59625D"/>
<path d="M52.4485 23.5504V25.4361H46.1676V23.5504H52.4485Z" fill="#59625D"/>
<path d="M58.83 13.5594C58.83 12.5705 59.1137 12.537 59.8783 12.537C61.0013 12.537 64.7315 12.5993 64.7315 16.8757C64.7315 21.4232 61.3079 21.4232 60.3622 21.4232C59.8266 21.4232 59.313 21.3897 58.8291 21.3322V13.5584L58.83 13.5594ZM54.0764 11.9966C55.9459 12.2102 56.2238 12.5705 56.2238 14.6939V27.6457C56.2238 29.7997 56.2238 30.4877 54.0764 30.6717V31.237H61.2341V30.6717C59.267 30.6056 58.83 30.1591 58.83 27.9734V22.5319C59.4414 22.5903 59.93 22.6219 60.5433 22.6219C63.2243 22.6219 64.858 22.0786 65.9609 20.855C66.3921 20.3759 67.5151 19.1494 67.5151 16.8163C67.5151 13.017 64.3463 11.4341 60.8202 11.4341H54.0774V11.9946L54.0764 11.9966Z" fill="#59625D"/>
<path d="M80.3089 31.238H74.8951V30.7886C76.1474 30.6372 76.638 30.4877 76.638 28.1861V22.2616C76.638 20.26 76.0708 19.09 74.6651 19.09C73.9273 19.09 72.9279 19.5385 71.8835 20.9748V28.1852C71.8835 30.4868 72.3693 30.6362 73.6217 30.7876V31.237H68.1053V30.7876C69.4861 30.5778 69.7391 30.366 69.7391 28.1852V14.095C69.7391 13.1924 69.7391 12.5686 68.6199 12.5686C68.4647 12.5686 68.2098 12.5686 68.1303 12.5973V12.1182C69.2763 11.7283 70.5277 11.3076 71.757 10.8017L71.8845 10.887V19.9227H71.9362C72.8311 18.4289 74.0816 17.4717 75.6137 17.4717C78.7518 17.4717 78.7825 21.0332 78.7825 22.2319V28.1842C78.7825 30.3651 79.0345 30.5213 80.3108 30.7867V31.2361L80.3089 31.238Z" fill="#59625D"/>
<path d="M87.3362 30.6976C84.27 30.6976 83.6836 25.1966 83.6836 22.9793C83.6836 19.8719 85.0854 18.3149 86.6942 18.3149C89.0447 18.3149 90.3488 21.5746 90.3488 25.2857C90.3488 29.5621 88.6336 30.6985 87.3362 30.6985V30.6976ZM86.9002 17.4745C83.4776 17.4745 81.3849 20.7343 81.3849 24.4147C81.3849 28.4573 83.6836 31.5398 86.9759 31.5398C90.8547 31.5398 92.6465 27.3784 92.6465 24.4147C92.6465 20.076 90.2443 17.4745 86.8993 17.4745H86.9002Z" fill="#59625D"/>
<path d="M99.9221 18.7326H97.3436V27.2893C97.3436 28.2139 97.3436 29.9828 98.6477 29.9828C99.4669 29.9828 99.9221 29.3216 100.204 28.9326L100.532 29.2651C99.923 30.549 98.7253 31.5369 97.5486 31.5369C96.2474 31.5369 95.1991 30.7263 95.1991 27.7387V18.7317H93.8433C93.7973 18.6972 93.7446 18.6109 93.7446 18.518C93.7446 18.1625 94.3061 17.9852 94.8733 17.3222C95.8421 16.158 96.2206 15.4978 97.1644 13.911C97.3445 13.911 97.3445 14.0643 97.3445 14.2991V17.7716H99.923V18.7307L99.9221 18.7326Z" fill="#59625D"/>
<path d="M107.204 30.6976C104.14 30.6976 103.547 25.1966 103.547 22.9793C103.547 19.8719 104.957 18.3149 106.563 18.3149C108.914 18.3149 110.217 21.5746 110.217 25.2857C110.217 29.5621 108.503 30.6985 107.205 30.6985L107.204 30.6976ZM106.768 17.4745C103.343 17.4745 101.255 20.7343 101.255 24.4147C101.255 28.4573 103.546 31.5398 106.842 31.5398C110.723 31.5398 112.515 27.3784 112.515 24.4147C112.515 20.076 110.117 17.4745 106.768 17.4745Z" fill="#59625D"/>
<path d="M115.324 21.1224C115.324 19.2366 114.837 19.2127 114.435 19.2127C114.077 19.2127 113.794 19.2702 113.691 19.3305V18.8198C114.837 18.4308 116.044 17.9852 117.215 17.4736L117.395 17.5359V19.8968C118.648 18.518 119.618 17.4736 121.125 17.4736C122.299 17.4736 124.109 18.2804 124.109 21.9627V28.8176C124.109 30.2223 124.421 30.6727 125.669 30.7886V31.238H120.357V30.7886C121.303 30.6966 121.967 30.549 121.967 28.2743V22.0202C121.967 20.1958 121.506 19.1207 120 19.1207C119.234 19.1207 118.443 19.7196 117.47 20.8253V29.2334C117.47 30.2213 117.826 30.6956 119.157 30.7876V31.237H113.74V30.7876C114.943 30.6956 115.324 30.3095 115.324 28.5436V21.1204V21.1224Z" fill="#59625D"/>
<path d="M27.6505 5.72423C27.6505 5.91491 27.6505 6.36142 27.7061 6.53007C27.7875 6.76386 28.0549 6.71691 28.258 6.73129V6.87406C27.96 6.86735 27.6649 6.85489 27.3659 6.8501C27.0909 6.85489 26.8179 6.86831 26.5323 6.87406V6.73129C26.7153 6.73129 26.9549 6.73129 27.0133 6.53007C27.067 6.36142 27.067 5.91491 27.067 5.72423V4.02344C27.067 3.82318 27.067 3.37858 27.0133 3.21377C26.9463 3.00009 26.7153 3.00584 26.5323 3.00584V2.86594C26.8255 2.87648 27.1092 2.88607 27.3899 2.89469C27.6639 2.88607 27.9274 2.87553 28.2034 2.86594C28.8147 2.89469 29.5075 3.14957 29.5075 3.91516C29.5075 4.79861 28.7093 5.01038 28.0328 5.01038C27.9274 5.01038 27.6716 4.99313 27.6486 4.99313V5.72423H27.6505ZM27.6505 4.8264C27.7598 4.83311 27.8776 4.85323 27.9821 4.85323C28.5685 4.85323 28.855 4.5859 28.855 3.93433C28.855 3.34696 28.5943 3.04513 28.0443 3.04513C27.9744 3.04513 27.7521 3.04513 27.6917 3.08154C27.6448 3.11316 27.6496 3.17927 27.6496 3.33162V4.8264H27.6505Z" fill="#59625D"/>
<path d="M30.3631 4.01961C30.3631 3.82413 30.3631 3.37953 30.3037 3.21377C30.2319 3.00584 30.0009 3.00584 29.8141 3.00584V2.86594C30.09 2.87648 30.3535 2.88607 30.6295 2.89469C30.9198 2.88607 31.2035 2.87553 31.4928 2.86594V3.00584C31.3108 3.00584 31.0779 3.00584 31.007 3.21377C30.9467 3.37858 30.9467 3.82413 30.9467 4.01961V5.80567C30.9467 6.58085 31.0588 6.70925 31.7822 6.70925C32.0467 6.70925 32.3562 6.71691 32.5881 6.55689C32.8717 6.37101 32.9033 6.142 32.957 5.80184H33.1026L33.0489 6.87501C32.9512 6.86831 32.8477 6.86447 32.749 6.85106C31.7784 6.86927 30.7924 6.86927 29.816 6.87501V6.73224C30.0029 6.73224 30.2338 6.73224 30.3056 6.53102C30.365 6.36238 30.365 5.91587 30.365 5.72519V4.02056L30.3631 4.01961Z" fill="#59625D"/>
<path d="M34.0838 5.55942C33.9985 5.7913 33.8184 6.23782 33.8184 6.47354C33.8184 6.73129 34.1049 6.71308 34.2745 6.73129V6.87406C34.0646 6.86735 33.8605 6.8549 33.6478 6.8501C33.4466 6.8549 33.2597 6.86831 33.0614 6.87406V6.73129C33.3632 6.69488 33.4888 6.60289 33.6028 6.30489C33.7609 5.91395 33.9161 5.53834 34.0752 5.14836L34.9433 2.773H35.1349L36.2828 5.84305C36.3528 6.00306 36.4726 6.37005 36.5799 6.50899C36.7044 6.68434 36.876 6.70925 37.0686 6.73225V6.87502C36.7983 6.86831 36.5291 6.85585 36.2598 6.85106C35.9925 6.85585 35.7127 6.86927 35.4406 6.87502V6.73225C35.5958 6.72841 35.8775 6.73991 35.8775 6.50611C35.8775 6.3528 35.8114 6.16979 35.7606 6.03085L35.5402 5.40994H34.1374L34.0847 5.55942H34.0838ZM35.4626 5.21639L34.8388 3.51273L34.2074 5.21639H35.4626Z" fill="#59625D"/>
<path d="M40.291 3.81456H40.1396C40.1032 3.21952 39.8866 3.0595 39.3577 3.0595C39.1469 3.0595 38.8039 3.03267 38.8039 3.22814V6.09313C38.8039 6.54061 38.8834 6.70829 39.4334 6.73129V6.87406C39.1229 6.86735 38.8039 6.8549 38.4896 6.8501C38.1897 6.8549 37.8964 6.86831 37.5927 6.87406V6.73129C38.1398 6.70829 38.2222 6.54061 38.2222 6.09313V3.22814C38.2222 3.04513 37.9693 3.0595 37.7412 3.0595C37.1807 3.0595 36.9057 3.09208 36.8817 3.81456H36.7581V2.86691H40.2402L40.291 3.81456Z" fill="#59625D"/>
<path d="M41.114 4.01961C41.114 3.82413 41.114 3.37953 41.0575 3.21377C40.9837 3.00584 40.749 3.00584 40.565 3.00584V2.86594C40.8429 2.87648 41.114 2.88607 41.389 2.89469C41.6736 2.88607 41.9592 2.87553 42.2457 2.86594V3.00584C42.0646 3.00584 41.8298 3.00584 41.757 3.21377C41.6985 3.37858 41.6985 3.82413 41.6985 4.01961V5.72423C41.6985 5.91491 41.6985 6.36142 41.757 6.53007C41.8298 6.73129 42.0646 6.73129 42.2457 6.73129V6.87406C41.9774 6.86735 41.6985 6.85489 41.4235 6.8501C41.1409 6.85489 40.8525 6.86831 40.565 6.87406V6.73129C40.748 6.73129 40.9837 6.73129 41.0575 6.53007C41.114 6.36142 41.114 5.91491 41.114 5.72423V4.01961Z" fill="#59625D"/>
<path d="M43.1703 3.37187C42.994 3.10454 42.8522 3.01351 42.5533 3.0068V2.86691C42.7324 2.87745 42.9078 2.88703 43.0918 2.89565C43.2422 2.88703 43.3955 2.87649 43.5411 2.86691L45.9357 5.98582H45.95V4.30228C45.95 4.04261 45.95 3.61717 45.8983 3.37187C45.8293 3.03267 45.675 3.05854 45.3905 3.0068V2.86691C45.6041 2.87745 45.8073 2.88703 46.0181 2.89565C46.2155 2.88703 46.4109 2.87649 46.6189 2.86691V3.0068C46.4119 3.03267 46.2547 3.01351 46.1877 3.27605C46.1283 3.46769 46.1168 4.09531 46.1168 4.3339V6.94018H45.951C45.8226 6.77632 45.698 6.60577 45.5706 6.43329L43.3505 3.57022H43.3428V5.60158C43.3428 5.82484 43.3428 6.28286 43.4252 6.48503C43.5249 6.71692 43.7088 6.70925 43.9196 6.73225V6.87502C43.7021 6.86831 43.4865 6.85585 43.269 6.85106C43.0573 6.85585 42.8445 6.86927 42.6347 6.87502V6.73225C42.8541 6.70925 43.0668 6.69584 43.1272 6.43329C43.1713 6.22153 43.1713 5.8373 43.1713 5.60158V3.37283L43.1703 3.37187Z" fill="#59625D"/>
<path d="M50.4363 5.26909C50.4363 6.37005 50.0338 6.93922 48.9549 6.93922C47.9373 6.93922 47.4467 6.55594 47.4467 5.46648V4.02057C47.4467 3.8251 47.4467 3.3805 47.3883 3.21473C47.3135 3.0068 47.0788 3.0068 46.9015 3.0068V2.86691C47.1641 2.87745 47.4391 2.88703 47.7083 2.89565C47.9977 2.88703 48.2813 2.87649 48.5697 2.86691V3.0068C48.3867 3.0068 48.1529 3.00105 48.0839 3.21473C48.0303 3.37954 48.0303 3.8251 48.0303 4.02057V5.50864C48.0303 6.28286 48.3149 6.71787 49.09 6.71787C49.8652 6.71787 50.2667 6.28765 50.2667 5.4751V4.14992C50.2667 3.94008 50.2667 3.4744 50.2111 3.28659C50.1297 3.03267 49.9016 3.00776 49.6803 3.00776V2.86786C49.9016 2.8784 50.1172 2.88799 50.3414 2.89661C50.5513 2.88799 50.7602 2.87745 50.9767 2.86786V3.00776C50.7927 3.01447 50.5963 3.00776 50.5149 3.2291C50.4372 3.44661 50.4372 3.91038 50.4372 4.14992V5.27005L50.4363 5.26909Z" fill="#59625D"/>
<path d="M55.4428 6.08164C55.4428 6.65655 55.461 6.68434 56.0072 6.73129V6.87406C55.7111 6.86735 55.4361 6.8549 55.1563 6.8501C54.8727 6.8549 54.5843 6.86831 54.2997 6.87406V6.73129C54.8373 6.68338 54.8631 6.65655 54.8631 6.08164V3.44469H54.8478L54.1962 5.12728C53.9624 5.71082 53.7315 6.29148 53.4881 6.87406H53.4326L52.0575 3.44565H52.0451V5.99061C52.0451 6.46108 52.1304 6.70925 52.5884 6.73225V6.87502C52.3747 6.86831 52.1697 6.85585 51.9627 6.85106C51.7615 6.85585 51.5602 6.86927 51.3619 6.87502V6.73225C51.7921 6.73225 51.8745 6.4582 51.8745 6.18225V3.60663C51.8745 3.45044 51.8525 3.29043 51.8218 3.21473C51.749 3.0068 51.5133 3.0068 51.336 3.0068V2.86691C51.5267 2.88224 51.7155 2.88703 51.9109 2.89565C52.0844 2.88703 52.2549 2.88224 52.4303 2.86691L53.6807 5.96761L54.8919 2.86691C55.0749 2.88224 55.2541 2.88703 55.4294 2.89565C55.6067 2.88703 55.7907 2.88224 55.9909 2.86691V3.01351C55.8098 3.01351 55.5827 3.02022 55.5013 3.21952C55.4428 3.35271 55.4428 3.66891 55.4428 3.89121V6.08164Z" fill="#59625D"/>
<path d="M59.4327 2.07064C59.4327 1.75156 59.4327 1.01759 59.3628 0.749297C59.2746 0.395725 58.9441 0.409139 58.6911 0.409139V0.16001C59.0159 0.166717 59.357 0.187797 59.6876 0.196421C60.114 0.187797 60.5423 0.166717 60.9668 0.16001C62.6321 0.119766 63.895 1.43345 63.895 3.59608C63.895 5.75872 62.7989 6.80027 61.1757 6.74949C60.7091 6.73895 60.229 6.71595 59.7662 6.70829C59.4011 6.71595 59.0456 6.73895 58.6911 6.74949V6.52144C58.945 6.52144 59.2756 6.52144 59.3628 6.18032C59.4327 5.91395 59.4327 5.17518 59.4327 4.8561V2.06873V2.07064ZM60.2462 4.996C60.2462 5.33807 60.2165 5.81717 60.3746 6.10271C60.5557 6.43999 60.9591 6.48024 61.2571 6.48024C62.6417 6.48024 62.91 5.22692 62.91 3.75514C62.91 1.78127 62.4568 0.432136 60.7704 0.432136C60.6736 0.432136 60.367 0.409139 60.297 0.500168C60.2462 0.560534 60.2462 0.728217 60.2462 0.808705V4.99504V4.996Z" fill="#59625D"/>
<path d="M65.3314 2.05244C65.3314 1.7324 65.3314 0.994596 65.2518 0.72726C65.1512 0.388061 64.8283 0.388061 64.5754 0.388061V0.160011C64.9558 0.166719 65.3314 0.187799 65.7156 0.196423C66.1142 0.187799 66.509 0.166719 66.9086 0.160011V0.387103C66.6508 0.387103 66.3317 0.387103 66.2273 0.726302C66.1449 0.993637 66.1449 1.73144 66.1449 2.05148V4.85706C66.1449 5.17518 66.1449 5.91491 66.2273 6.18128C66.3327 6.5224 66.6518 6.5224 66.9086 6.5224V6.75045C66.5377 6.73991 66.1439 6.71691 65.7674 6.70925C65.3687 6.71691 64.9682 6.73991 64.5744 6.75045V6.5224C64.8274 6.5224 65.1512 6.5224 65.2509 6.18128C65.3304 5.91491 65.3304 5.17614 65.3304 4.85706V2.05148L65.3314 2.05244Z" fill="#59625D"/>
<path d="M68.4091 4.58781C68.2845 4.96821 68.0277 5.7041 68.0277 6.0893C68.0277 6.5224 68.4263 6.48982 68.6687 6.5224V6.75045C68.3765 6.73991 68.0881 6.71691 67.7977 6.70924C67.5189 6.71691 67.2477 6.73991 66.9727 6.75045V6.5224C67.402 6.46107 67.5783 6.30106 67.7345 5.81621C67.9559 5.17614 68.1695 4.55044 68.3899 3.91229L69.6001 -7.62939e-06H69.8674L71.4667 5.0602C71.5606 5.31316 71.7321 5.92257 71.8729 6.15445C72.054 6.43904 72.2869 6.48024 72.5504 6.5224V6.75045C72.1834 6.73991 71.8087 6.71691 71.437 6.70924C71.0489 6.71691 70.6685 6.73991 70.2843 6.75045V6.5224C70.5066 6.50898 70.8946 6.53102 70.8946 6.14104C70.8946 5.89191 70.8084 5.59679 70.7346 5.3649L70.4299 4.34156H68.479L68.4091 4.58781ZM70.3235 4.02056L69.4554 1.21594L68.5768 4.02056H70.3226H70.3235Z" fill="#59625D"/>
<path d="M78.3197 5.44731C78.3197 6.39017 78.3446 6.43999 79.0996 6.5224V6.75045C78.6924 6.73991 78.3043 6.71691 77.9153 6.70925C77.5244 6.71691 77.1171 6.73991 76.7243 6.75045V6.5224C77.4793 6.43904 77.5042 6.38921 77.5042 5.44731V1.10287H77.4908L76.5872 3.88162C76.2576 4.83982 75.9357 5.79609 75.6041 6.75045H75.5217L73.6015 1.10287H73.59V5.29975C73.59 6.07301 73.7079 6.48024 74.3451 6.5224V6.75045C74.0528 6.73991 73.7635 6.71691 73.4722 6.70925C73.1933 6.71691 72.9164 6.73991 72.6462 6.75045V6.5224C73.2441 6.5224 73.3533 6.06343 73.3533 5.61595V1.375C73.3533 1.11437 73.3236 0.8547 73.2786 0.72726C73.1799 0.388061 72.8551 0.388061 72.6031 0.388061V0.160011C72.8685 0.179175 73.1282 0.187799 73.3993 0.196423C73.6466 0.187799 73.8804 0.179175 74.1266 0.160011L75.8657 5.25663L77.556 0.160011C77.7984 0.179175 78.0494 0.187799 78.2947 0.196423C78.5477 0.187799 78.7997 0.179175 79.0805 0.160011V0.394768C78.8304 0.394768 78.517 0.408183 78.3992 0.735884C78.3206 0.956268 78.3206 1.47465 78.3206 1.84451V5.44635L78.3197 5.44731Z" fill="#59625D"/>
<path d="M79.6898 3.47344C79.6898 1.48998 81.0687 0.0402374 82.5932 0.0402374C84.1176 0.0402374 85.4265 1.43345 85.4265 3.4054C85.4265 5.37736 84.156 6.85872 82.5606 6.85872C80.9652 6.85872 79.6898 5.47414 79.6898 3.47344ZM80.6845 3.47344C80.6845 5.03624 81.1731 6.58947 82.6104 6.58947C84.0477 6.58947 84.4377 4.92989 84.4377 3.44565C84.4377 1.96141 83.9509 0.310447 82.5616 0.310447C81.1722 0.310447 80.6845 1.99878 80.6845 3.47344Z" fill="#59625D"/>
<path d="M86.8351 0.985972C86.5888 0.548079 86.401 0.395726 85.9727 0.388061V0.160011C86.2247 0.166719 86.471 0.187799 86.7259 0.196423C86.928 0.187799 87.1427 0.166719 87.3506 0.160011L90.6813 5.28825H90.7004V2.51716C90.7004 2.09077 90.7004 1.39224 90.6267 0.985014C90.5347 0.431179 90.32 0.466632 89.9243 0.387103V0.160011C90.2146 0.166719 90.4973 0.187799 90.7905 0.196423C91.0693 0.187799 91.3367 0.166719 91.6347 0.160011V0.387103C91.3376 0.431179 91.1335 0.394768 91.0291 0.828828C90.9486 1.14312 90.9352 2.16934 90.9352 2.56507V6.85872H90.7014C90.5241 6.58947 90.3517 6.30872 90.1782 6.03085L87.0919 1.31367H87.0737V4.65776C87.0737 5.02858 87.0737 5.77405 87.1944 6.10942C87.3286 6.50036 87.5854 6.47928 87.8766 6.52144V6.74949C87.5806 6.73895 87.2711 6.71595 86.9683 6.70829C86.6799 6.71595 86.3828 6.73895 86.0925 6.74949V6.52144C86.4029 6.47928 86.6942 6.46012 86.7766 6.02989C86.837 5.66961 86.837 5.04583 86.837 4.65776V0.985972H86.8351Z" fill="#59625D"/>
<path d="M92.7634 2.07064C92.7634 1.75156 92.7634 1.01759 92.6973 0.749297C92.6063 0.395725 92.2748 0.409139 92.0237 0.409139V0.16001C92.3476 0.166717 92.6877 0.187797 93.0193 0.196421C93.4447 0.187797 93.8721 0.166717 94.2985 0.16001C95.9638 0.119766 97.2267 1.43345 97.2267 3.59608C97.2267 5.75872 96.1286 6.80027 94.5054 6.74949C94.0397 6.73895 93.5635 6.71595 93.0988 6.70829C92.7337 6.71595 92.3773 6.73895 92.0237 6.74949V6.52144C92.2748 6.52144 92.6072 6.52144 92.6973 6.18032C92.7634 5.91395 92.7634 5.17518 92.7634 4.8561V2.06873V2.07064ZM93.5836 4.996C93.5836 5.33807 93.5501 5.81717 93.7073 6.10271C93.8884 6.43999 94.2898 6.48024 94.5907 6.48024C95.9715 6.48024 96.2436 5.22692 96.2436 3.75514C96.2436 1.78127 95.7884 0.432136 94.103 0.432136C94.0053 0.432136 93.6967 0.409139 93.6268 0.500168C93.5817 0.560534 93.5817 0.728217 93.5817 0.808705V4.99504L93.5836 4.996Z" fill="#59625D"/>
<path d="M101.169 5.72423C101.169 5.91491 101.169 6.36143 101.218 6.53007C101.303 6.76387 101.568 6.71692 101.768 6.73129V6.87406C101.473 6.86735 101.182 6.8549 100.884 6.8501C100.606 6.8549 100.336 6.86831 100.049 6.87406V6.73129C100.233 6.73129 100.466 6.73129 100.532 6.53007C100.584 6.36143 100.584 5.91491 100.584 5.72423V4.02344C100.584 3.82318 100.584 3.37858 100.532 3.21377C100.461 3.00009 100.233 3.00584 100.049 3.00584V2.86595C100.341 2.87649 100.623 2.88607 100.905 2.89469C101.182 2.88607 101.444 2.87553 101.719 2.86595C102.331 2.89469 103.025 3.14957 103.025 3.91517C103.025 4.79862 102.222 5.01038 101.544 5.01038C101.444 5.01038 101.191 4.99313 101.169 4.99313V5.72423ZM101.169 4.82641C101.276 4.83311 101.39 4.85324 101.494 4.85324C102.082 4.85324 102.372 4.5859 102.372 3.93433C102.372 3.34696 102.111 3.04513 101.559 3.04513C101.493 3.04513 101.266 3.04513 101.207 3.08154C101.159 3.11316 101.168 3.17928 101.168 3.33163V4.82641H101.169Z" fill="#59625D"/>
<path d="M104.497 5.72423C104.497 5.91491 104.497 6.36143 104.559 6.53007C104.629 6.73129 104.864 6.73129 105.042 6.73129V6.87406C104.772 6.86735 104.494 6.8549 104.222 6.8501C103.939 6.8549 103.647 6.86831 103.372 6.87406V6.73129C103.555 6.73129 103.785 6.73129 103.856 6.53007C103.918 6.36143 103.918 5.91491 103.918 5.72423V4.01961C103.918 3.82414 103.918 3.37954 103.856 3.21377C103.785 3.00584 103.555 3.00584 103.372 3.00584V2.86595C103.634 2.87649 103.911 2.88607 104.184 2.89469C104.473 2.88607 104.757 2.87553 105.043 2.86595V3.00584C104.866 3.00584 104.631 3.00584 104.56 3.21377C104.498 3.37858 104.498 3.82414 104.498 4.01961V4.71717H106.526V4.01961C106.526 3.82414 106.526 3.37954 106.473 3.21377C106.398 3.00584 106.166 3.00584 105.983 3.00584V2.86595C106.26 2.87649 106.534 2.88607 106.811 2.89469C107.099 2.88607 107.374 2.87553 107.656 2.86595V3.00584C107.478 3.00584 107.245 3.00584 107.17 3.21377C107.112 3.37858 107.112 3.82414 107.112 4.01961V5.72423C107.112 5.91491 107.112 6.36143 107.17 6.53007C107.245 6.73129 107.478 6.73129 107.656 6.73129V6.87406C107.385 6.86735 107.105 6.8549 106.833 6.8501C106.55 6.8549 106.264 6.86831 105.983 6.87406V6.73129C106.166 6.73129 106.398 6.73129 106.473 6.53007C106.526 6.36143 106.526 5.91491 106.526 5.72423V4.91456H104.498V5.72423H104.497Z" fill="#59625D"/>
<path d="M108.105 4.8839C108.105 3.67754 109.09 2.79792 110.192 2.79792C111.294 2.79792 112.228 3.644 112.228 4.84174C112.228 6.03948 111.316 6.93922 110.168 6.93922C109.02 6.93922 108.106 6.1008 108.106 4.8839H108.105ZM108.818 4.8839C108.818 5.83347 109.168 6.77441 110.201 6.77441C111.234 6.77441 111.521 5.76543 111.521 4.86569C111.521 3.96595 111.165 2.95698 110.166 2.95698C109.168 2.95698 108.817 3.98799 108.817 4.88294L108.818 4.8839Z" fill="#59625D"/>
<path d="M116.153 3.81456H115.999C115.961 3.21952 115.747 3.0595 115.212 3.0595C115.002 3.0595 114.662 3.03267 114.662 3.22814V6.09313C114.662 6.54061 114.741 6.70829 115.293 6.73129V6.87406C114.979 6.86735 114.662 6.8549 114.351 6.8501C114.048 6.8549 113.754 6.86831 113.444 6.87406V6.73129C113.996 6.70829 114.076 6.54061 114.076 6.09313V3.22814C114.076 3.04513 113.825 3.0595 113.6 3.0595C113.036 3.0595 112.765 3.09208 112.743 3.81456H112.615V2.86691H116.098L116.153 3.81456Z" fill="#59625D"/>
<path d="M116.508 4.8839C116.508 3.67754 117.499 2.79792 118.591 2.79792C119.682 2.79792 120.63 3.644 120.63 4.84174C120.63 6.03948 119.714 6.93922 118.568 6.93922C117.421 6.93922 116.508 6.1008 116.508 4.8839ZM117.221 4.8839C117.221 5.83347 117.567 6.77441 118.605 6.77441C119.643 6.77441 119.92 5.76543 119.92 4.86569C119.92 3.96595 119.566 2.95698 118.568 2.95698C117.569 2.95698 117.221 3.98799 117.221 4.88294V4.8839Z" fill="#59625D"/>
<path d="M121.637 3.37187C121.464 3.10454 121.33 3.01351 121.02 3.0068V2.86691C121.203 2.87745 121.382 2.88703 121.561 2.89565C121.705 2.88703 121.865 2.87649 122.01 2.86691L124.407 5.98582H124.42V4.30228C124.42 4.04261 124.42 3.61717 124.365 3.37187C124.297 3.03267 124.14 3.05854 123.859 3.0068V2.86691C124.069 2.87745 124.277 2.88703 124.488 2.89565C124.685 2.88703 124.879 2.87649 125.087 2.86691V3.0068C124.879 3.03267 124.729 3.01351 124.655 3.27605C124.601 3.46769 124.589 4.09531 124.589 4.3339V6.94018H124.421C124.294 6.77632 124.169 6.60577 124.042 6.43329L121.827 3.57022H121.813V5.60158C121.813 5.82484 121.813 6.28286 121.895 6.48503C121.993 6.71692 122.179 6.70925 122.392 6.73225V6.87502C122.176 6.86831 121.955 6.85585 121.741 6.85106C121.529 6.85585 121.316 6.86927 121.108 6.87502V6.73225C121.331 6.70925 121.545 6.69584 121.597 6.43329C121.639 6.22153 121.639 5.8373 121.639 5.60158V3.37283L121.637 3.37187Z" fill="#59625D"/>
<path d="M56.0465 37.816C84.1387 44.506 117.234 36.0165 117.234 36.0165C117.234 36.0165 85.8692 42.3156 57.7799 35.6207C29.6876 28.9287 3.34695 37.7891 3.34695 37.7891C3.34695 37.7891 27.961 31.1287 56.0475 37.816H56.0465Z" fill="#F47B1F"/>
<path d="M55.5444 42.169C74.6843 48.2325 99.3615 41.4973 99.3615 41.4973C99.3615 41.4973 76.844 46.4646 57.7051 40.3992C38.5643 34.332 11.6784 37.837 11.6784 37.837C11.6784 37.837 36.4026 36.1056 55.5444 42.1681V42.169Z" fill="#F47B1F"/>
<path d="M52.3939 45.6195C68.2653 50.65 85.5415 46.1446 85.5415 46.1446C85.5415 46.1446 69.626 49.046 54.1838 44.1573C38.319 39.1268 23.2601 39.4152 23.2601 39.4152C23.2601 39.4152 36.5281 40.5966 52.3939 45.6204V45.6195Z" fill="#F47B1F"/>
</svg>
