<svg width="24" height="24" viewBox="0 0 24 24" fill="none" xmlns="http://www.w3.org/2000/svg">
<rect width="24" height="24" rx="12" fill="white"/>
<path d="M14.5984 8.10484C12.4479 6.67112 9.54309 7.25734 8.11032 9.40416C7.39166 10.4757 7.68374 11.9318 8.759 12.6486C9.83342 13.3655 11.2848 13.0744 12.0017 11.999C12.7185 10.9238 14.1708 10.6363 15.2453 11.3494C16.3214 12.0663 16.6108 13.5223 15.893 14.5939C17.3267 12.4433 16.7472 9.53856 14.5984 8.10484Z" fill="#FF4B55"/>
<path d="M8.11029 9.40416C7.39163 10.4757 7.68371 11.9318 8.75897 12.6486C9.83339 13.3655 11.2848 13.0744 12.0016 11.999C12.7185 10.9238 14.1708 10.6363 15.2452 11.3494C16.3213 12.0663 16.6108 13.5223 15.893 14.5939C14.4612 16.7482 11.5573 17.3268 9.4068 15.8932C7.25813 14.4595 6.67662 11.5547 8.11029 9.40416Z" fill="#41479B"/>
<path d="M16.9796 6.33706L17.8298 7.61485C17.9012 7.72221 17.8723 7.86716 17.7651 7.9389L17.5496 8.08327C17.442 8.15532 17.2964 8.12632 17.2246 8.01858L16.3734 6.74106C16.3018 6.63359 16.3308 6.48837 16.4382 6.41669L16.6548 6.27206C16.7625 6.20022 16.9079 6.22938 16.9796 6.33706Z" fill="#464655"/>
<path d="M18.2912 8.30732L19.1441 9.58438C19.2161 9.69222 19.1868 9.83807 19.0785 9.90959L18.8621 10.0527C18.7547 10.1237 18.61 10.0945 18.5385 9.98747L17.6861 8.7118C17.6143 8.60433 17.6431 8.45906 17.7506 8.38722L17.9666 8.2428C18.0741 8.17091 18.2194 8.1998 18.2912 8.30732Z" fill="#464655"/>
<path d="M17.8897 5.72967L20.0544 8.97832C20.1261 9.08584 20.097 9.23111 19.9894 9.30279L19.772 9.44779C19.6644 9.51947 19.5191 9.49042 19.4474 9.3829L17.282 6.13452C17.2103 6.02695 17.2394 5.88157 17.3471 5.80994L17.5652 5.66473C17.6728 5.59304 17.8181 5.62215 17.8897 5.72967Z" fill="#464655"/>
<path d="M18.7975 5.12304L19.6495 6.40338C19.7212 6.51122 19.6917 6.65681 19.5837 6.72828L19.367 6.87148C19.2595 6.94252 19.1148 6.91331 19.0432 6.80605L18.1906 5.52741C18.1189 5.41989 18.1479 5.27457 18.2555 5.20289L18.4728 5.05804C18.5804 4.98625 18.7258 5.01541 18.7975 5.12304Z" fill="#464655"/>
<path d="M20.11 7.09744L20.9607 8.37512C21.0322 8.48254 21.0033 8.6276 20.896 8.69933L20.6799 8.84381C20.5723 8.91575 20.4268 8.8867 20.3551 8.77896L19.5043 7.50128C19.4328 7.39386 19.4618 7.2488 19.5691 7.17707L19.7851 7.03259C19.8927 6.96065 20.0382 6.9897 20.11 7.09744Z" fill="#464655"/>
<path d="M5.46386 14.0137L7.62828 17.2589C7.69996 17.3663 7.67101 17.5116 7.56355 17.5834L7.34675 17.7281C7.23923 17.7999 7.09386 17.7709 7.02212 17.6633L4.8577 14.4182C4.78602 14.3107 4.81502 14.1654 4.92244 14.0937L5.13923 13.9489C5.2468 13.8772 5.39213 13.9062 5.46386 14.0137Z" fill="#464655"/>
<path d="M4.55533 14.6207L5.40506 15.8953C5.47663 16.0028 5.44779 16.1478 5.34053 16.2196L5.12496 16.3639C5.01749 16.4359 4.87201 16.407 4.80017 16.2994L3.94933 15.0251C3.87755 14.9176 3.90655 14.7723 4.01402 14.7005L4.23065 14.5559C4.33822 14.4841 4.4836 14.5132 4.55533 14.6207Z" fill="#464655"/>
<path d="M5.86847 16.5916L6.71925 17.8694C6.79077 17.9768 6.76183 18.122 6.65452 18.1936L6.43831 18.3382C6.33074 18.4101 6.18525 18.3811 6.11352 18.2734L5.2622 16.9958C5.19058 16.8883 5.21958 16.7432 5.32699 16.6714L5.54373 16.5267C5.65131 16.4549 5.79679 16.484 5.86847 16.5916Z" fill="#464655"/>
<path d="M3.64645 15.2275L5.80949 18.4728C5.88112 18.5803 5.85217 18.7254 5.74481 18.7972L5.52865 18.9416C5.42113 19.0135 5.2757 18.9845 5.20392 18.8769L3.0396 15.6321C2.96787 15.5245 2.99692 15.3792 3.1045 15.3075L3.32193 15.1625C3.42945 15.091 3.57477 15.12 3.64645 15.2275Z" fill="#464655"/>
<path d="M4.85804 9.58452L7.02214 6.33678C7.09388 6.22916 7.23925 6.2001 7.34683 6.27194L7.56351 6.41663C7.67098 6.48836 7.69993 6.63363 7.62825 6.7411L5.4633 9.98699C5.39178 10.0942 5.24698 10.1235 5.13946 10.0523L4.92362 9.90947C4.81557 9.83795 4.7862 9.69236 4.85804 9.58452Z" fill="#464655"/>
<path d="M3.94909 8.97843L6.11362 5.73005C6.18535 5.62237 6.33084 5.59337 6.43841 5.66526L6.65456 5.80974C6.76187 5.88147 6.79082 6.02658 6.71925 6.134L4.55531 9.38259C4.48362 9.49022 4.3382 9.51932 4.23062 9.44748L4.01388 9.3028C3.90647 9.23112 3.87747 9.0859 3.94909 8.97843Z" fill="#464655"/>
<path d="M3.03939 8.37497L5.20407 5.12336C5.27581 5.01562 5.42134 4.98657 5.52892 5.05852L5.74507 5.20304C5.85233 5.27478 5.88133 5.41978 5.80986 5.5272L3.64645 8.77923C3.57482 8.88691 3.42944 8.91607 3.32182 8.84434L3.10439 8.69939C2.99687 8.62771 2.96776 8.48249 3.03939 8.37497Z" fill="#464655"/>
<path d="M16.3735 17.2588L17.2244 15.9845C17.2962 15.877 17.4417 15.8481 17.5492 15.92L17.7648 16.0644C17.872 16.1362 17.9009 16.2813 17.8293 16.3886L16.9795 17.6632C16.9078 17.7708 16.7624 17.7998 16.6549 17.728L16.4383 17.5834C16.3307 17.5116 16.3017 17.3663 16.3735 17.2588Z" fill="#464655"/>
<path d="M17.6858 15.2945L18.538 14.0139C18.6096 13.9063 18.755 13.8771 18.8626 13.9489L19.0798 14.0936C19.1874 14.1654 19.2164 14.3108 19.1446 14.4183L18.2906 15.6969C18.219 15.8041 18.0742 15.8332 17.9667 15.762L17.7513 15.6193C17.6435 15.5478 17.6141 15.4023 17.6858 15.2945Z" fill="#464655"/>
<path d="M17.282 17.869L18.1333 16.5914C18.205 16.4838 18.3503 16.4547 18.4579 16.5264L18.6755 16.6715C18.783 16.7432 18.8121 16.8884 18.7404 16.9959L17.8897 18.2737C17.818 18.3813 17.6728 18.4104 17.5652 18.3388L17.347 18.1936C17.2394 18.122 17.2103 17.9766 17.282 17.869Z" fill="#464655"/>
<path d="M18.5956 15.8949L19.4474 14.6203C19.5191 14.5129 19.6644 14.484 19.7718 14.5556L19.9892 14.7005C20.0968 14.7723 20.1258 14.9177 20.0539 15.0253L19.2022 16.2999C19.1305 16.4073 18.9853 16.4362 18.8778 16.3646L18.6603 16.2196C18.5528 16.1479 18.5238 16.0024 18.5956 15.8949Z" fill="#464655"/>
<path d="M18.1911 18.4725L19.0433 17.1971C19.1149 17.09 19.2595 17.0609 19.3669 17.1319L19.5836 17.2751C19.6918 17.3466 19.7212 17.4923 19.6493 17.6002L18.7976 18.8773C18.726 18.9848 18.5807 19.0138 18.4731 18.9422L18.2558 18.7973C18.1482 18.7255 18.1192 18.58 18.1911 18.4725Z" fill="#464655"/>
<path d="M19.5048 16.5049L20.355 15.228C20.4267 15.1202 20.5723 15.0912 20.6798 15.1631L20.8957 15.3074C21.0031 15.3792 21.032 15.5244 20.9603 15.6319L20.1095 16.9071C20.0379 17.0144 19.893 17.0435 19.7855 16.9723L19.5703 16.8296C19.4624 16.7582 19.4331 16.6126 19.5048 16.5049Z" fill="#464655"/>
</svg>
