<svg width="24" height="24" viewBox="0 0 24 24" fill="none" xmlns="http://www.w3.org/2000/svg">
<mask id="mask0_179_2281" style="mask-type:alpha" maskUnits="userSpaceOnUse" x="0" y="0" width="24" height="24">
<rect width="24" height="24" rx="12" fill="#D9D9D9"/>
</mask>
<g mask="url(#mask0_179_2281)">
<path d="M12 24C18.6274 24 24 18.6274 24 12C24 5.37258 18.6274 0 12 0C5.37258 0 0 5.37258 0 12C0 18.6274 5.37258 24 12 24Z" fill="#F72F38"/>
<path d="M18.4089 13.8944L17.2305 13.8752L16.8473 12.7616L16.4649 13.8752L15.2865 13.8952L16.2281 14.6024L15.8833 15.728L16.8481 15.052L17.8129 15.728L17.4673 14.6024L18.4089 13.8944Z" fill="#FCFC52"/>
<path d="M14.0873 8.58163L14.1065 7.40323L15.2201 7.02003L14.1065 6.63683L14.0865 5.45843L13.3793 6.40003L12.2529 6.05603L12.9297 7.02083L12.2529 7.98563L13.3793 7.63923L14.0873 8.58163Z" fill="#FCFC52"/>
<path d="M14.0873 18.5416L14.1065 17.3632L15.2201 16.98L14.1065 16.5968L14.0865 15.4184L13.3793 16.36L12.2529 16.016L12.9297 16.9808L12.2529 17.9456L13.3793 17.5992L14.0873 18.5416Z" fill="#FCFC52"/>
<path d="M17.3225 10.0296L17.8393 8.97123L16.7809 9.48803L15.9337 8.66883L16.0993 9.83443L15.0593 10.3872L16.2201 10.5912L16.4241 11.752L16.9753 10.7112L18.1417 10.876L17.3225 10.0296Z" fill="#FCFC52"/>
<path d="M10.809 10.5712L7.63216 10.5184L6.59936 7.51683L5.56736 10.5192L2.39136 10.5728L4.92976 12.4808L4.00016 15.5168L6.60096 13.6936L9.20256 15.5152L8.27136 12.48L10.809 10.5712Z" fill="#FCFC52"/>
</g>
</svg>
